PathFileType	4	(X/Y/Z)	0_coords_data.trc
DataRate	CameraRate	NumFrames	NumMarkers	Units	OrigDataRate	OrigDataStartFrame	OrigNumFrames
30.0	30.0	6	21	m	30.0	39	57
Frame#	Time	THUMB_TIP	THUMB_IP	THUMB_MCP	THUMB_CMC	INDEX_TIP	INDEX_DIP	INDEX_PIP	INDEX_MCP	MIDDLE_TIP	MIDDLE_DIP	MIDDLE_PIP	MIDDLE_MCP	RING_TIP	RING_DIP	RING_PIP	RING_MCP	PINKY_TIP	PINKY_DIP	PINKY_PIP	PINKY_MCP	WRIST
X1	Y1	Z1	X2	Y2	Z2	X3	Y3	Z3	X4	Y4	Z4	X5	Y5	Z5	X6	Y6	Z6	X7	Y7	Z7	X8	Y8	Z8	X9	Y9	Z9	X10	Y10	Z10	X11	Y11	Z11	X12	Y12	Z12	X13	Y13	Z13	X14	Y14	Z14	X15	Y15	Z15	X16	Y16	Z16	X17	Y17	Z17	X18	Y18	Z18	X19	Y19	Z19	X20	Y20	Z20	X21	Y21	Z21
37	1.2666666666666608	0.49322500834039185	-0.03392430669525315	-0.1679646377126075	0.48992924501420954	-0.03233079624663204	-0.1452798703885213	0.47074459047114026	-0.035153062810511004	-0.12093230702982971	0.4748166466539254	-0.029834403065687964	-0.07682992368195335	0.5534516046888004	-0.012174422389955142	-0.14930762438923195	0.5427128997495845	0.002162055075048408	-0.1519807555352673	0.5223285375298989	0.016666591984636825	-0.14950971953086672	0.488025441551205	0.01160102675395891	-0.12478576860933593	0.5597210145277927	-0.010819219871236352	-0.13273285090884684	0.5555416795282258	0.006705134245657884	-0.13458492319336546	0.536386661315863	0.028455082221092387	-0.13151334536593662	0.49905597893827836	0.02424061989396964	-0.10733057502180199	0.5630992679548419	0.0004621322672834216	-0.11221825368534755	0.5612346485369817	0.01838308859315596	-0.11282034902057875	0.5453698131381419	0.03725664627434766	-0.10931666564126835	0.511234573426319	0.02784589816167715	-0.08979887724769614	0.5607795867375894	0.0036102224563452356	-0.09205146477154724	0.5620531066966128	0.019719759454418284	-0.0864069130070857	0.5499832960693072	0.03507230202684353	-0.07869775436409177	0.5174428292864793	0.023220931529212008	-0.06862072653424278	0.4622830810018609	-0.023011742144276925	-0.051989820119430985
38	1.299999999999994	0.4946378686887096	-0.03536381159978852	-0.16743918436036265	0.49073117397360655	-0.033430583802201985	-0.1448781478884799	0.4711645114439925	-0.03585393468184572	-0.12079302617472626	0.4749411890232499	-0.029920541997799144	-0.07674280985608328	0.5559752793790039	-0.006768217657174835	-0.1559247482656641	0.5430737986187513	0.005940571030687236	-0.15612092237225722	0.5215216532742246	0.01781311858458723	-0.15096752750782205	0.48849709278821296	0.010717839439109644	-0.12503161586867761	0.5653797952956441	-0.004859444625748832	-0.13871717143113677	0.5575212325596883	0.011454862132767474	-0.1384232552626944	0.5359400979190216	0.030191628070152743	-0.13271380871954708	0.4994901785059931	0.023336739976873577	-0.10780273076189245	0.5685635764704468	0.00616207749242903	-0.11654496636649953	0.5629277073336991	0.023250301830466058	-0.1154361074726894	0.5446693665892894	0.03939042727580899	-0.11030684603758761	0.5117375916445146	0.026821542983451407	-0.09050174112415599	0.5651297327101052	0.007977911060014442	-0.09330485573024644	0.5633170716050437	0.02371623732675221	-0.08682262262429374	0.5493786989224224	0.03724386575968097	-0.0788516092043468	0.5179093304710194	0.022362864749907896	-0.06941137037172301	0.4622830810018608	-0.023011742144276925	-0.05198982011943093
39	1.3333333333333275	0.49628250038513344	-0.03695993093153882	-0.16677895645423602	0.49170656628972487	-0.03465551573809589	-0.1443791685585727	0.4717226744853641	-0.03663691700034988	-0.12059812322011992	0.47512620238520964	-0.03005196970709889	-0.07661011954889069	0.5576295207021773	-0.0012661069437369665	-0.16192916136300123	0.5431093511127669	0.009311094286158506	-0.15962970724581155	0.5209808823230668	0.018573215446344493	-0.15210948027867122	0.4891451832189665	0.009767406343896612	-0.12522859334009645	0.5697304975518058	0.0014058135159139562	-0.1439068645123876	0.5590188750471452	0.01581583126710806	-0.1415377862680242	0.5357147296440067	0.03139840090802681	-0.13356847761448964	0.5000572867118012	0.02238610243905559	-0.10820170484295472	0.5728420323993808	0.012017790443878407	-0.12019236916055809	0.5640623472907245	0.02752320937512609	-0.11745391829202939	0.5440898052259585	0.04090363437345679	-0.1109545514509282	0.5122747109116632	0.02583411797799473	-0.0910691225297458	0.5686730045937523	0.012077464501467183	-0.09392529929389054	0.5642403282646794	0.027059558289191266	-0.08693328625775343	0.5487814305345888	0.038771302252872064	-0.07889154805635767	0.5183188744432766	0.021601653273630617	-0.07005303679521824	0.462283081001861	-0.023011742144276925	-0.05198982011943104
40	1.3666666666666607	0.4980776619615884	-0.038591252723837455	-0.1659629490554117	0.49282274902169665	-0.03591000007892853	-0.14375491505308885	0.47236146028782866	-0.03745785835225224	-0.12035064625197078	0.47536515523093303	-0.030211495761817253	-0.0764375725051159	0.558275985594707	0.003646096207516214	-0.16673533416100406	0.5428855165892874	0.012172864522360105	-0.16244258610198736	0.520631622432224	0.01904981991559418	-0.15298311929007397	0.4898562406753737	0.008832981254522143	-0.1253764501774527	0.5728225276922696	0.007450181241836384	-0.1480334877106193	0.5601208177651953	0.019703578296485724	-0.14396890586871092	0.5356545287420719	0.032164231736118265	-0.134194328266872	0.500688571940346	0.02143033261573768	-0.1085367134982827	0.5760533273337098	0.017544239921033378	-0.12304957785588566	0.5648224126704168	0.031039757702071902	-0.11895842207206309	0.543686881456308	0.041830789772098975	-0.11140706946732537	0.5128229513410744	0.02489323722885961	-0.09152597378104604	0.5717776000595228	0.015727692661701154	-0.09407582188347308	0.5650166612667946	0.029718127653779458	-0.0868954712392907	0.5483457032890685	0.03967653264652604	-0.07891290591820921	0.5187022876004823	0.020906873686278304	-0.07055519930516757	0.4622830810018609	-0.023011742144276925	-0.05198982011943093
41	1.3999999999999937	0.4999111294169013	-0.04029410902216313	-0.16506385930887202	0.4939722520444576	-0.03724109236255324	-0.14307729921341328	0.4730301104183088	-0.03834726835163105	-0.12007679750602623	0.47559232404420426	-0.030407782621059587	-0.07625568812174283	0.5583676370834662	0.007942033844392182	-0.17060845253633616	0.5425792098173651	0.014570332069103298	-0.1647100436739965	0.52049446370932	0.019243143488890113	-0.15364484345988844	0.4906333797644816	0.007880471163872138	-0.12548740328373614	0.5751667006248393	0.013163140017674935	-0.15128177381224345	0.5610104401860269	0.023040924380456906	-0.14580184074049074	0.5358161695636677	0.03250289927943062	-0.1346157194816036	0.5013933657579231	0.020467242983341682	-0.10880174116221947	0.5785793351731957	0.022640877748234534	-0.1252085441150581	0.5655138939713309	0.033921811345359765	-0.1200090457375354	0.5435921583467149	0.04224430058884965	-0.1116213369325969	0.5134216732526016	0.023980177037124406	-0.0918505389195371	0.5746131939911616	0.018948580701063866	-0.09396552584022677	0.5658177167684575	0.031680934946586636	-0.08664932902826161	0.5482021675948738	0.04001452630312896	-0.0788355142483208	0.5190935778137571	0.02025598064201528	-0.07088734934613461	0.4622830810018609	-0.023011742144276925	-0.05198982011943093
42	1.4333333333333271	0.501714930002924	-0.0419747460320441	-0.16409193593906513	0.4951455052844024	-0.0385423937850935	-0.1423419562397521	0.47370378126179746	-0.039193863138138885	-0.11978872900681509	0.47581652234332517	-0.030637023749421455	-0.07605994186609827	0.5580951694535716	0.011620320763978453	-0.1737780748732507	0.5422232433071693	0.01646535727758447	-0.16652496646478376	0.5205073584681634	0.01919664357401385	-0.15415685206419816	0.4914178447278422	0.006944351022794448	-0.12556808483664883	0.5768227506039133	0.018329277061159055	-0.15377792887191216	0.561711653732577	0.025777182712685143	-0.14713086540365367	0.5361378473284979	0.03251433701499451	-0.13488338697282748	0.5021029877742736	0.01954278510778651	-0.10900839717103539	0.5805685832161107	0.02715441328181234	-0.1268303716713337	0.5661827098618009	0.03613361415066785	-0.12071313376599552	0.543790323025465	0.042214789109757844	-0.11166988756295376	0.5140157331345617	0.023139512118644512	-0.09206559113230295	0.5771888887478633	0.021683891051427873	-0.09361363772617026	0.5666980349590875	0.03305425081465618	-0.08628855031117749	0.5483549750358392	0.039883530358939434	-0.07869216218535396	0.5194558391872789	0.01968710243963734	-0.07108770970625372	0.4622830810018609	-0.023011742144276925	-0.05198982011943093
